M48
METRIC,LZ,000.000
;FILE_FORMAT=3:3
;TYPE=PLATED
;Layer: PTH_Through
;EasyEDA v6.4.31, 2022-02-08 20:51:16
;aca76a114d3d40dd8edb9042e3354b56,7b35ab87edb5478c89a92b32cd25319b,10
;Gerber Generator version 0.2
;Holesize 1 = 0.811 mm
T01C0.811
;Holesize 2 = 0.915 mm
T02C0.915
;Holesize 3 = 1.000 mm
T03C1.000
;Holesize 4 = 4.801 mm
T04C4.801
%
G05
G90
T01
X036957Y050927
X036957Y048387
X036957Y045847
X036957Y043307
X036957Y040767
X036957Y038227
X028067Y050927
X028067Y048387
X028067Y045847
X028067Y043307
X028067Y040767
X028067Y038227
T02
X047288Y044704
X047288Y042164
X045338Y043434
X045338Y045974
X047288Y047244
X045338Y048514
T03
X016256Y045849
X018796Y044829
X016256Y043809
X018796Y042789
X016256Y047889
X018796Y046869
T04
X013577Y055640G85X013582Y055640
X045457Y055640G85X045462Y055640
M30
