G04 Layer: TopLayer*
G04 EasyEDA v6.4.31, 2022-02-08 20:51:16*
G04 aca76a114d3d40dd8edb9042e3354b56,7b35ab87edb5478c89a92b32cd25319b,10*
G04 Gerber Generator version 0.2*
G04 Scale: 100 percent, Rotated: No, Reflected: No *
G04 Dimensions in millimeters *
G04 leading zeros omitted , absolute positions ,4 integer and 5 decimal *
%FSLAX45Y45*%
%MOMM*%

%ADD11C,0.3000*%
%ADD12C,5.0000*%
%ADD13C,1.6000*%
%ADD14R,1.6000X1.6000*%
%ADD16C,1.5200*%
%ADD17C,1.5240*%

%LPD*%
D11*
X4728789Y4216384D02*
G01*
X4089369Y4216384D01*
X3695694Y3822710D01*
X2806694Y4330710D02*
G01*
X3695694Y4330710D01*
X2806694Y4584710D02*
G01*
X3695694Y4584710D01*
X4533793Y4597384D02*
G01*
X3708369Y4597384D01*
X3695694Y4584710D01*
X2806694Y4838710D02*
G01*
X3695694Y4838710D01*
X4728789Y4724384D02*
G01*
X3810020Y4724384D01*
X3695694Y4838710D01*
X3695694Y4076710D02*
G01*
X2806694Y4076710D01*
X4533793Y4343384D02*
G01*
X3962369Y4343384D01*
X3695694Y4076710D01*
X4533900Y4851400D02*
G01*
X4254500Y4851400D01*
X4013200Y5092700D01*
X3695700Y5092700D01*
X2806694Y5092710D02*
G01*
X2489398Y5092710D01*
X1879594Y4482906D01*
X1879594Y4686894D02*
G01*
X1879594Y4716231D01*
X1678706Y4917119D01*
X1572508Y4917119D01*
X1434104Y4778715D01*
X1434104Y4301576D01*
X1722241Y4013438D01*
X2743423Y4013438D01*
X2806694Y4076710D01*
X1625594Y4584887D02*
G01*
X1497375Y4456668D01*
X1497375Y4327814D01*
X1748480Y4076710D01*
X2552694Y4076710D01*
X2806694Y4330710D01*
X2806694Y4838710D02*
G01*
X2118659Y4150674D01*
X1779645Y4150674D01*
X1625594Y4304725D01*
X1625594Y4380900D01*
X1879594Y4482906D02*
G01*
X1879594Y4278894D01*
X2806694Y3822710D02*
G01*
X3695694Y3822710D01*
D12*
G01*
X1357960Y5564022D03*
G01*
X4545965Y5564022D03*
D13*
G01*
X1625600Y4584877D03*
G01*
X1879600Y4482896D03*
G01*
X1625600Y4380890D03*
D14*
G01*
X1879600Y4278884D03*
D13*
G01*
X1625600Y4788890D03*
G01*
X1879600Y4686884D03*
G36*
X3619703Y5168696D02*
G01*
X3771696Y5168696D01*
X3771696Y5016703D01*
X3619703Y5016703D01*
G37*
D16*
G01*
X3695700Y4838700D03*
G01*
X3695700Y4584700D03*
G01*
X3695700Y4330700D03*
G01*
X3695700Y4076700D03*
G01*
X3695700Y3822700D03*
G36*
X2730703Y5168696D02*
G01*
X2882696Y5168696D01*
X2882696Y5016703D01*
X2730703Y5016703D01*
G37*
G01*
X2806700Y4838700D03*
G01*
X2806700Y4584700D03*
G01*
X2806700Y4330700D03*
G01*
X2806700Y4076700D03*
G01*
X2806700Y3822700D03*
D17*
G01*
X4728794Y4470374D03*
G01*
X4728794Y4216374D03*
G01*
X4533798Y4343374D03*
G01*
X4533798Y4597374D03*
G01*
X4728794Y4724374D03*
G01*
X4533798Y4851374D03*
M02*
