G04 Layer: TopSilkscreenLayer*
G04 EasyEDA v6.4.31, 2022-02-08 20:51:16*
G04 aca76a114d3d40dd8edb9042e3354b56,7b35ab87edb5478c89a92b32cd25319b,10*
G04 Gerber Generator version 0.2*
G04 Scale: 100 percent, Rotated: No, Reflected: No *
G04 Dimensions in millimeters *
G04 leading zeros omitted , absolute positions ,4 integer and 5 decimal *
%FSLAX45Y45*%
%MOMM*%

%ADD10C,0.2540*%
%ADD18C,0.2032*%
%ADD19C,0.1524*%

%LPD*%
D18*
X1676654Y3509771D02*
G01*
X1660397Y3526281D01*
X1635760Y3534410D01*
X1602994Y3534410D01*
X1578355Y3526281D01*
X1562100Y3509771D01*
X1562100Y3493515D01*
X1570228Y3477260D01*
X1578355Y3468878D01*
X1594865Y3460750D01*
X1643887Y3444494D01*
X1660397Y3436365D01*
X1668526Y3427984D01*
X1676654Y3411728D01*
X1676654Y3387089D01*
X1660397Y3370834D01*
X1635760Y3362705D01*
X1602994Y3362705D01*
X1578355Y3370834D01*
X1562100Y3387089D01*
X1730755Y3534410D02*
G01*
X1730755Y3362705D01*
X1730755Y3534410D02*
G01*
X1804162Y3534410D01*
X1828800Y3526281D01*
X1836928Y3518154D01*
X1845310Y3501644D01*
X1845310Y3477260D01*
X1836928Y3460750D01*
X1828800Y3452621D01*
X1804162Y3444494D01*
X1730755Y3444494D01*
X1899157Y3534410D02*
G01*
X1899157Y3362705D01*
X1953259Y3534410D02*
G01*
X1953259Y3362705D01*
X2067813Y3534410D02*
G01*
X1953259Y3419855D01*
X1994154Y3460750D02*
G01*
X2067813Y3362705D01*
X2121661Y3534410D02*
G01*
X2121661Y3362705D01*
X2121661Y3534410D02*
G01*
X2228088Y3534410D01*
X2121661Y3452621D02*
G01*
X2187193Y3452621D01*
X2121661Y3362705D02*
G01*
X2228088Y3362705D01*
X2522727Y3509771D02*
G01*
X2506218Y3526281D01*
X2481834Y3534410D01*
X2449068Y3534410D01*
X2424429Y3526281D01*
X2408174Y3509771D01*
X2408174Y3493515D01*
X2416302Y3477260D01*
X2424429Y3468878D01*
X2440940Y3460750D01*
X2489961Y3444494D01*
X2506218Y3436365D01*
X2514345Y3427984D01*
X2522727Y3411728D01*
X2522727Y3387089D01*
X2506218Y3370834D01*
X2481834Y3362705D01*
X2449068Y3362705D01*
X2424429Y3370834D01*
X2408174Y3387089D01*
X2576575Y3427984D02*
G01*
X2674874Y3427984D01*
X2674874Y3444494D01*
X2666745Y3460750D01*
X2658363Y3468878D01*
X2642108Y3477260D01*
X2617470Y3477260D01*
X2601213Y3468878D01*
X2584704Y3452621D01*
X2576575Y3427984D01*
X2576575Y3411728D01*
X2584704Y3387089D01*
X2601213Y3370834D01*
X2617470Y3362705D01*
X2642108Y3362705D01*
X2658363Y3370834D01*
X2674874Y3387089D01*
X2728722Y3477260D02*
G01*
X2728722Y3362705D01*
X2728722Y3444494D02*
G01*
X2753359Y3468878D01*
X2769615Y3477260D01*
X2794254Y3477260D01*
X2810763Y3468878D01*
X2818891Y3444494D01*
X2818891Y3362705D01*
X2962909Y3452621D02*
G01*
X2954527Y3468878D01*
X2930143Y3477260D01*
X2905506Y3477260D01*
X2881122Y3468878D01*
X2872740Y3452621D01*
X2881122Y3436365D01*
X2897377Y3427984D01*
X2938272Y3419855D01*
X2954527Y3411728D01*
X2962909Y3395471D01*
X2962909Y3387089D01*
X2954527Y3370834D01*
X2930143Y3362705D01*
X2905506Y3362705D01*
X2881122Y3370834D01*
X2872740Y3387089D01*
X3057652Y3477260D02*
G01*
X3041395Y3468878D01*
X3024886Y3452621D01*
X3016758Y3427984D01*
X3016758Y3411728D01*
X3024886Y3387089D01*
X3041395Y3370834D01*
X3057652Y3362705D01*
X3082290Y3362705D01*
X3098545Y3370834D01*
X3115056Y3387089D01*
X3123184Y3411728D01*
X3123184Y3427984D01*
X3115056Y3452621D01*
X3098545Y3468878D01*
X3082290Y3477260D01*
X3057652Y3477260D01*
X3177286Y3477260D02*
G01*
X3177286Y3362705D01*
X3177286Y3427984D02*
G01*
X3185413Y3452621D01*
X3201670Y3468878D01*
X3218179Y3477260D01*
X3242563Y3477260D01*
X3488181Y3534410D02*
G01*
X3422650Y3362705D01*
X3488181Y3534410D02*
G01*
X3553459Y3362705D01*
X3447288Y3419855D02*
G01*
X3529075Y3419855D01*
X3705859Y3534410D02*
G01*
X3705859Y3362705D01*
X3705859Y3452621D02*
G01*
X3689350Y3468878D01*
X3673093Y3477260D01*
X3648456Y3477260D01*
X3632200Y3468878D01*
X3615690Y3452621D01*
X3607561Y3427984D01*
X3607561Y3411728D01*
X3615690Y3387089D01*
X3632200Y3370834D01*
X3648456Y3362705D01*
X3673093Y3362705D01*
X3689350Y3370834D01*
X3705859Y3387089D01*
X3858006Y3477260D02*
G01*
X3858006Y3362705D01*
X3858006Y3452621D02*
G01*
X3841495Y3468878D01*
X3825240Y3477260D01*
X3800602Y3477260D01*
X3784345Y3468878D01*
X3767836Y3452621D01*
X3759708Y3427984D01*
X3759708Y3411728D01*
X3767836Y3387089D01*
X3784345Y3370834D01*
X3800602Y3362705D01*
X3825240Y3362705D01*
X3841495Y3370834D01*
X3858006Y3387089D01*
X3911854Y3477260D02*
G01*
X3911854Y3305302D01*
X3911854Y3452621D02*
G01*
X3928363Y3468878D01*
X3944620Y3477260D01*
X3969258Y3477260D01*
X3985513Y3468878D01*
X4002024Y3452621D01*
X4010152Y3427984D01*
X4010152Y3411728D01*
X4002024Y3387089D01*
X3985513Y3370834D01*
X3969258Y3362705D01*
X3944620Y3362705D01*
X3928363Y3370834D01*
X3911854Y3387089D01*
X4088638Y3534410D02*
G01*
X4088638Y3395471D01*
X4096765Y3370834D01*
X4113275Y3362705D01*
X4129531Y3362705D01*
X4064000Y3477260D02*
G01*
X4121404Y3477260D01*
X4183634Y3427984D02*
G01*
X4281677Y3427984D01*
X4281677Y3444494D01*
X4273550Y3460750D01*
X4265422Y3468878D01*
X4248911Y3477260D01*
X4224527Y3477260D01*
X4208018Y3468878D01*
X4191761Y3452621D01*
X4183634Y3427984D01*
X4183634Y3411728D01*
X4191761Y3387089D01*
X4208018Y3370834D01*
X4224527Y3362705D01*
X4248911Y3362705D01*
X4265422Y3370834D01*
X4281677Y3387089D01*
X4335779Y3477260D02*
G01*
X4335779Y3362705D01*
X4335779Y3427984D02*
G01*
X4343908Y3452621D01*
X4360163Y3468878D01*
X4376674Y3477260D01*
X4401311Y3477260D01*
X2402077Y5721604D02*
G01*
X2391156Y5716270D01*
X2380234Y5705347D01*
X2374900Y5689092D01*
X2374900Y5678170D01*
X2380234Y5661660D01*
X2391156Y5650737D01*
X2402077Y5645404D01*
X2418588Y5645404D01*
X2429509Y5650737D01*
X2440431Y5661660D01*
X2445765Y5678170D01*
X2445765Y5689092D01*
X2440431Y5705347D01*
X2429509Y5716270D01*
X2418588Y5721604D01*
X2402077Y5721604D01*
X2525522Y5759957D02*
G01*
X2514600Y5759957D01*
X2503677Y5754370D01*
X2498090Y5738113D01*
X2498090Y5645404D01*
X2481834Y5721604D02*
G01*
X2519934Y5721604D01*
X2626868Y5759957D02*
G01*
X2626868Y5645404D01*
X2626868Y5705347D02*
G01*
X2615945Y5716270D01*
X2605024Y5721604D01*
X2588768Y5721604D01*
X2577845Y5716270D01*
X2566924Y5705347D01*
X2561336Y5689092D01*
X2561336Y5678170D01*
X2566924Y5661660D01*
X2577845Y5650737D01*
X2588768Y5645404D01*
X2605024Y5645404D01*
X2615945Y5650737D01*
X2626868Y5661660D01*
X2662936Y5759957D02*
G01*
X2662936Y5645404D01*
X2704338Y5672581D02*
G01*
X2699004Y5667247D01*
X2704338Y5661660D01*
X2709925Y5667247D01*
X2704338Y5672581D01*
X2762250Y5759957D02*
G01*
X2762250Y5667247D01*
X2767584Y5650737D01*
X2778506Y5645404D01*
X2789427Y5645404D01*
X2745740Y5721604D02*
G01*
X2784093Y5721604D01*
X2825495Y5721604D02*
G01*
X2847340Y5645404D01*
X2869184Y5721604D02*
G01*
X2847340Y5645404D01*
X2869184Y5721604D02*
G01*
X2890774Y5645404D01*
X2912618Y5721604D02*
G01*
X2890774Y5645404D01*
X3032759Y5721604D02*
G01*
X3032759Y5645404D01*
X3032759Y5689092D02*
G01*
X3038093Y5705347D01*
X3049015Y5716270D01*
X3059938Y5721604D01*
X3076447Y5721604D01*
X3112261Y5689092D02*
G01*
X3177793Y5689092D01*
X3177793Y5700013D01*
X3172459Y5710681D01*
X3166872Y5716270D01*
X3155950Y5721604D01*
X3139693Y5721604D01*
X3128772Y5716270D01*
X3117850Y5705347D01*
X3112261Y5689092D01*
X3112261Y5678170D01*
X3117850Y5661660D01*
X3128772Y5650737D01*
X3139693Y5645404D01*
X3155950Y5645404D01*
X3166872Y5650737D01*
X3177793Y5661660D01*
X3213861Y5721604D02*
G01*
X3246627Y5645404D01*
X3279140Y5721604D02*
G01*
X3246627Y5645404D01*
X3315208Y5738113D02*
G01*
X3326129Y5743447D01*
X3342640Y5759957D01*
X3342640Y5645404D01*
X3384041Y5672581D02*
G01*
X3378454Y5667247D01*
X3384041Y5661660D01*
X3389375Y5667247D01*
X3384041Y5672581D01*
X3458209Y5759957D02*
G01*
X3441700Y5754370D01*
X3430777Y5738113D01*
X3425443Y5710681D01*
X3425443Y5694426D01*
X3430777Y5667247D01*
X3441700Y5650737D01*
X3458209Y5645404D01*
X3469131Y5645404D01*
X3485388Y5650737D01*
X3496309Y5667247D01*
X3501897Y5694426D01*
X3501897Y5710681D01*
X3496309Y5738113D01*
X3485388Y5754370D01*
X3469131Y5759957D01*
X3458209Y5759957D01*
D19*
X1803400Y5335015D02*
G01*
X1803400Y5226050D01*
X1803400Y5335015D02*
G01*
X1870963Y5335015D01*
X1803400Y5283200D02*
G01*
X1845055Y5283200D01*
X1803400Y5226050D02*
G01*
X1870963Y5226050D01*
X1905254Y5335015D02*
G01*
X1946909Y5226050D01*
X1988311Y5335015D02*
G01*
X1946909Y5226050D01*
X2033015Y5335015D02*
G01*
X2090165Y5335015D01*
X2058924Y5293360D01*
X2074672Y5293360D01*
X2085086Y5288279D01*
X2090165Y5283200D01*
X2095500Y5267452D01*
X2095500Y5257037D01*
X2090165Y5241544D01*
X2079752Y5231129D01*
X2064258Y5226050D01*
X2048509Y5226050D01*
X2033015Y5231129D01*
X2027936Y5236210D01*
X2022602Y5246623D01*
X3340100Y5411215D02*
G01*
X3340100Y5302250D01*
X3340100Y5302250D02*
G01*
X3402329Y5302250D01*
X3436620Y5411215D02*
G01*
X3436620Y5302250D01*
X3436620Y5411215D02*
G01*
X3483609Y5411215D01*
X3499104Y5406136D01*
X3504184Y5400802D01*
X3509518Y5390387D01*
X3509518Y5374894D01*
X3504184Y5364479D01*
X3499104Y5359400D01*
X3483609Y5354065D01*
X3436620Y5354065D01*
X3543808Y5411215D02*
G01*
X3543808Y5302250D01*
X3543808Y5411215D02*
G01*
X3611372Y5411215D01*
X3543808Y5359400D02*
G01*
X3585209Y5359400D01*
X3650741Y5385307D02*
G01*
X3650741Y5390387D01*
X3656075Y5400802D01*
X3661156Y5406136D01*
X3671570Y5411215D01*
X3692397Y5411215D01*
X3702811Y5406136D01*
X3707891Y5400802D01*
X3713225Y5390387D01*
X3713225Y5379973D01*
X3707891Y5369560D01*
X3697477Y5354065D01*
X3645661Y5302250D01*
X3718306Y5302250D01*
X3752595Y5265673D02*
G01*
X3846068Y5265673D01*
X3916679Y5411215D02*
G01*
X3916679Y5302250D01*
X3880358Y5411215D02*
G01*
X3953256Y5411215D01*
X3987545Y5411215D02*
G01*
X3987545Y5302250D01*
X3987545Y5411215D02*
G01*
X4034281Y5411215D01*
X4049775Y5406136D01*
X4055109Y5400802D01*
X4060190Y5390387D01*
X4060190Y5374894D01*
X4055109Y5364479D01*
X4049775Y5359400D01*
X4034281Y5354065D01*
X3987545Y5354065D01*
X2463800Y5411215D02*
G01*
X2463800Y5302250D01*
X2463800Y5411215D02*
G01*
X2510536Y5411215D01*
X2526029Y5406136D01*
X2531363Y5400802D01*
X2536443Y5390387D01*
X2536443Y5379973D01*
X2531363Y5369560D01*
X2526029Y5364479D01*
X2510536Y5359400D01*
X2463800Y5359400D01*
X2500122Y5359400D02*
G01*
X2536443Y5302250D01*
X2622804Y5411215D02*
G01*
X2622804Y5328157D01*
X2617470Y5312410D01*
X2612390Y5307329D01*
X2601975Y5302250D01*
X2591561Y5302250D01*
X2581147Y5307329D01*
X2576068Y5312410D01*
X2570734Y5328157D01*
X2570734Y5338571D01*
X2657093Y5390387D02*
G01*
X2667508Y5395721D01*
X2683002Y5411215D01*
X2683002Y5302250D01*
X2717291Y5390387D02*
G01*
X2727706Y5395721D01*
X2743200Y5411215D01*
X2743200Y5302250D01*
X2777490Y5265673D02*
G01*
X2871215Y5265673D01*
X2941827Y5411215D02*
G01*
X2941827Y5302250D01*
X2905506Y5411215D02*
G01*
X2978150Y5411215D01*
X3012440Y5411215D02*
G01*
X3012440Y5302250D01*
X3012440Y5411215D02*
G01*
X3059175Y5411215D01*
X3074670Y5406136D01*
X3080004Y5400802D01*
X3085084Y5390387D01*
X3085084Y5374894D01*
X3080004Y5364479D01*
X3074670Y5359400D01*
X3059175Y5354065D01*
X3012440Y5354065D01*
X4479543Y3795521D02*
G01*
X4469129Y3805936D01*
X4453636Y3811015D01*
X4432808Y3811015D01*
X4417313Y3805936D01*
X4406900Y3795521D01*
X4406900Y3785107D01*
X4411979Y3774694D01*
X4417313Y3769360D01*
X4427727Y3764279D01*
X4458970Y3753865D01*
X4469129Y3748786D01*
X4474463Y3743452D01*
X4479543Y3733037D01*
X4479543Y3717544D01*
X4469129Y3707129D01*
X4453636Y3702050D01*
X4432808Y3702050D01*
X4417313Y3707129D01*
X4406900Y3717544D01*
X4513834Y3811015D02*
G01*
X4513834Y3702050D01*
X4513834Y3811015D02*
G01*
X4560570Y3811015D01*
X4576318Y3805936D01*
X4581397Y3800602D01*
X4586731Y3790187D01*
X4586731Y3774694D01*
X4581397Y3764279D01*
X4576318Y3759200D01*
X4560570Y3753865D01*
X4513834Y3753865D01*
X4621022Y3811015D02*
G01*
X4621022Y3702050D01*
X4655311Y3811015D02*
G01*
X4655311Y3702050D01*
X4727956Y3811015D02*
G01*
X4655311Y3738371D01*
X4681220Y3764279D02*
G01*
X4727956Y3702050D01*
X4762245Y3811015D02*
G01*
X4762245Y3702050D01*
X4762245Y3811015D02*
G01*
X4829809Y3811015D01*
X4762245Y3759200D02*
G01*
X4803902Y3759200D01*
X4762245Y3702050D02*
G01*
X4829809Y3702050D01*
X4957572Y3831844D02*
G01*
X4864100Y3665473D01*
X4991861Y3811015D02*
G01*
X4991861Y3702050D01*
X4991861Y3811015D02*
G01*
X5038597Y3811015D01*
X5054345Y3805936D01*
X5059425Y3800602D01*
X5064759Y3790187D01*
X5064759Y3779773D01*
X5059425Y3769360D01*
X5054345Y3764279D01*
X5038597Y3759200D01*
X4991861Y3759200D01*
X5028184Y3759200D02*
G01*
X5064759Y3702050D01*
X5099050Y3811015D02*
G01*
X5099050Y3702050D01*
D10*
X1255608Y3923898D02*
G01*
X795606Y3923901D01*
X795606Y5143898D02*
G01*
X1255608Y5143901D01*
X2095606Y5143901D02*
G01*
X2095606Y3923901D01*
X795604Y5143901D02*
G01*
X795606Y3923901D01*
X1535607Y5143901D02*
G01*
X2095611Y5143903D01*
X2095609Y3923898D02*
G01*
X1535607Y3923898D01*
X3822700Y4965700D02*
G01*
X3822700Y3695700D01*
X3568700Y3695700D01*
X3568700Y5219700D01*
X3822700Y5219700D01*
X3822700Y4965700D01*
X2933700Y4965700D02*
G01*
X2933700Y3695700D01*
X2679700Y3695700D01*
X2679700Y5219700D01*
X2933700Y5219700D01*
X2933700Y4965700D01*
X5105806Y5146395D02*
G01*
X5105806Y3921404D01*
X4425797Y3921404D01*
X4425797Y5146395D01*
X5105806Y5146395D01*
M02*
